<svg xmlns="http://www.w3.org/2000/svg" width="151.90482" height="73.9549" viewBox="0 0 151.90482 73.9549">
  <title>UNC wordmark arch North Carolina white</title>
  <g id="Layer_2" data-name="Layer 2">
    <g id="page2">
      <g>
        <path d="M112.92764,28.7606v-3.995c.086.023.172.047.258.07a.54577.54577,0,0,0,.73895-.542v-4.531a1.05266,1.05266,0,0,0-.73895-.954q-1.5975-.441-3.203-.846a.5629.5629,0,0,0-.741.564v4.531a1.01723,1.01723,0,0,0,.741.932c.087.023.173.045.25994.067v3.996q-3.48294-.8865-6.995-1.604v-4.323q.42306.08552.844.175a.51436.51436,0,0,0,.653-.518V8.3236a.85336.85336,0,0,0-.653-.794q-.42141-.09-.844-.175v-4.263q3.5115.7185,6.995,1.603v3.915c-.087-.022-.173-.044-.25994-.067a.56345.56345,0,0,0-.741.565v4.582a1.02065,1.02065,0,0,0,.741.934q1.605.405,3.203.845a.54576.54576,0,0,0,.738-.544v-4.581a1.054,1.054,0,0,0-.738-.955c-.086-.024-.172-.047-.258-.07v-3.915q3.438.94047,6.839,2.045v4.264c-.263-.086-.528-.171-.792-.256a.45771.45771,0,0,0-.64.453v13.46a.96627.96627,0,0,0,.64.859c.264.085.529.17.793.256v4.324q-3.402-1.1055-6.84-2.048" style="fill: #fff"/>
        <path d="M75.48331,23.3897v-3.821a.64831.64831,0,0,0,.55-.879q-.75448-1.989-1.506-3.972a.77058.77058,0,0,0-.709-.492q-.759-.006-1.52-.005a.772.772,0,0,0-.537.222.74462.74462,0,0,0-.223.532v3.819a.74973.74973,0,0,0,.758.745h.316v3.826q-3.59848.003-7.197.179v-4.138c.284-.013.567-.026.852-.038a.702.702,0,0,0,.669-.689V4.69469a.63256.63256,0,0,0-.669-.633c-.285.011-.568.024-.852.039V.1787q6.43955-.312,12.885-.078,1.16547,1.5585,2.331,3.136v7.035q-1.09653,1.29447-2.191,2.603,1.1055,3.054,2.208,6.124a.71243.71243,0,0,0,.624.467q.579.03148,1.158.068v4.139q-3.46948-.22049-6.947-.283m-3.127-19.467a.66923.66923,0,0,0-.669.664v5.134a.66221.66221,0,0,0,.669.658q1.54194-.00453,3.085.023a.65185.65185,0,0,0,.671-.648V4.6187a.68224.68224,0,0,0-.671-.674q-1.542-.02548-3.085-.022" style="fill: #fff"/>
        <path d="M88.49356,24.1551v-4.303c.317.032.635.067.952.102a.5754.5754,0,0,0,.659-.58v-13.45a.75554.75554,0,0,0-.659-.731q-.72749-.081-1.452-.152a.58511.58511,0,0,0-.66205.59v2.192q-1.69794-.162-3.4-.288V.41012a151.84669,151.84669,0,0,1,16.857,2.192v7.125q-1.665-.3105-3.337-.586v-2.193a.80452.80452,0,0,0-.656-.763q-.723-.114-1.446-.223a.55242.55242,0,0,0-.658.558v13.449a.78759.78759,0,0,0,.658.752q.4335.066.865.133v4.304q-3.849-.6-7.721-1.003" style="fill: #fff"/>
        <path d="M50.10776,25.06441q-1.19851-1.36951-2.393-2.722v-17.3q1.203-1.683,2.408-3.345,4.59906-.693,9.226-1.104,1.233,1.452,2.465,2.921v17.141q-1.227,1.641-2.456,3.303-4.635.411-9.25,1.106m2.919-19.506a.78357.78357,0,0,0-.665.751v13.452a.56828.56828,0,0,0,.665.572q1.689-.219,3.382-.404a.75857.75857,0,0,0,.667-.731V5.74541a.58685.58685,0,0,0-.667-.591q-1.69346.1815-3.382.404" style="fill: #fff"/>
        <path d="M43.01352,22.3856a.52177.52177,0,0,1-.653-.461V7.6596a.85013.85013,0,0,1,.66-.795q.38553-.0765.774-.152v-3.921q-3.363.654-6.701,1.458v3.921c.289-.07.579-.139.867-.206a.50563.50563,0,0,1,.656.508v10.013q-3.075-6.588-6.128-13.047-3.36.92249-6.683,2.002v3.921c.262-.085.525-.17.787-.253a.51878.51878,0,0,1,.457.048.47729.47729,0,0,1,.189.409q-.0075,6.9945-.017,13.988a.97564.97564,0,0,1-.646.865c-.263.084-.527.169-.789.254l.015,4.131q3.402-1.1055,6.843-2.047-.006-2.07-.011-4.138-.53256.1455-1.067.296a.52221.52221,0,0,1-.461-.063.49594.49594,0,0,1-.19-.415q.00594-5.574.013-11.148,3.11544,6.4785,6.256,13.093c.172.36.344.723.515,1.085q2.325-.552,4.661-1.028.76044-.156,1.526-.303v-3.921c-.292.056-.583.112-.873.171" style="fill: #fff"/>
        <path d="M138.27921,68.3758v-3.991c.225-.037.453-.076.678-.114a.91309.91309,0,0,0,.589-.39.83323.83323,0,0,0,.133-.669c-.153-.802-.303-1.606-.456-2.408a.61009.61009,0,0,0-.722-.446q-2.1015.363-4.206.7a.92079.92079,0,0,0-.715.654c-.175.858-.349,1.719-.522,2.577a.68563.68563,0,0,0,.121.633.63325.63325,0,0,0,.595.204c.211-.033.423-.066.634-.102v3.994q-3.516.5655-7.042,1.066v-4.297c.342-.049.685-.097,1.027-.146a.90348.90348,0,0,0,.72-.663q2.427-9.6,4.85-19.23,2.64-.42149,5.275-.879,2.22446,8.847,4.444,17.668a.59613.59613,0,0,0,.72.438q.567-.108,1.136-.216.009,2.14948.017,4.3-3.633.6945-7.276,1.317m-1.774-16.042a.92972.92972,0,0,0-.718.669q-.4845,1.8465-.969,3.695a.69588.69588,0,0,0,.125.633.63941.63941,0,0,0,.593.197q.89256-.1485,1.785-.301a.90759.90759,0,0,0,.581-.382.82667.82667,0,0,0,.142-.658q-.4065-1.698-.814-3.395a.61087.61087,0,0,0-.708-.461l-.017.003" style="fill: #fff"/>
        <path d="M27.88,71.3595v-3.99c.227.027.455.053.682.081a.66353.66353,0,0,0,.592-.221.69637.69637,0,0,0,.135-.631q-.228-1.269-.46-2.539a.86549.86549,0,0,0-.725-.652q-2.11349-.24451-4.227-.514a.64483.64483,0,0,0-.717.449q-.26257,1.21348-.524,2.426a.80056.80056,0,0,0,.121.669.882.882,0,0,0,.597.376c.213.026.426.054.638.081v3.992q-3.52944-.447-7.054-.959v-4.319c.341.049.684.098,1.025.146a.62937.62937,0,0,0,.722-.455q2.42853-8.89051,4.859-17.81,2.649.33748,5.303.64,2.244,9.4815,4.49194,18.935a.8523.8523,0,0,0,.728.644l1.146.114v4.32q-3.669-.3555-7.333-.783M26.097,54.80649a.6482.6482,0,0,0-.72.461q-.48751,1.71148-.975,3.417a.80175.80175,0,0,0,.127.669.86555.86555,0,0,0,.594.368q.897.108,1.794.213a.66281.66281,0,0,0,.58405-.215.6941.6941,0,0,0,.142-.617q-.40951-1.815-.817-3.628a.87577.87577,0,0,0-.714-.666l-.01495-.002" style="fill: #fff"/>
        <path d="M95.04776,73.2996v-4.321q.36146-.021.724-.041a.80893.80893,0,0,0,.75-.795V54.9206a.69935.69935,0,0,0-.75-.704c-.242.015-.483.028-.724.042v-4.301q3.834-.2175,7.66394-.514v4.299c-.246.019-.493.038-.738.056a.8242.8242,0,0,0-.75.805v13.223a.6867.6867,0,0,0,.75.692c.245-.019.492-.037.738-.056v4.32q-3.82947.297-7.66394.517" style="fill: #fff"/>
        <path d="M76.78757,73.9188v-4.297c.271-.002.54-.007.81-.01a.67509.67509,0,0,0,.665-.671V55.1628a.654.654,0,0,0-.665-.653l-.81.009v-3.942q3.969-.04048,7.938-.163v3.942l-1.087.033a.68491.68491,0,0,0-.666.679v13.779a.64494.64494,0,0,0,.196.464.655.655,0,0,0,.47.18q1.413-.039,2.827-.09a.69352.69352,0,0,0,.661-.685v-3.641q2.001-.0735,4.003-.168v8.598q-7.167.34049-14.342.414" style="fill: #fff"/>
        <path d="M48.37564,73.19631v-4.015a.61919.61919,0,0,0,.466-.247.64868.64868,0,0,0,.078-.608q-.747-1.92-1.491-3.841a.81851.81851,0,0,0-.701-.53c-.501-.036-1.003-.07-1.504-.107a.70847.70847,0,0,0-.531.181.68878.68878,0,0,0-.22.514v3.625a.81741.81741,0,0,0,.75.801c.104.007.208.015.313.023v4.014q-3.561-.25052-7.118-.567v-4.32q.42.03752.841.074a.59877.59877,0,0,0,.662-.605v-13.78a.73686.73686,0,0,0-.662-.718c-.281-.025-.561-.049-.841-.074v-3.917q6.36594.5655,12.746.921,1.155,1.581,2.309,3.153v7.027q-1.08454,1.29448-2.17,2.583,1.095,2.976,2.187,5.948a.70377.70377,0,0,0,.619.463q.5745.0255,1.149.053v4.321q-3.44247-.156-6.882-.372m-3.094-19.631a.60872.60872,0,0,0-.66205.613v5.129a.72113.72113,0,0,0,.66205.707q1.52544.1095,3.05194.206a.61633.61633,0,0,0,.664-.62v-5.129a.716.716,0,0,0-.664-.702q-1.52546-.096-3.05194-.204" style="fill: #fff"/>
        <path d="M61.10782,73.7869q-1.19559-1.584-2.393-3.178v-17.282q1.20447-1.4355,2.408-2.88,4.596.1395,9.193.168,1.22406,1.56448,2.449,3.123v17.121q-1.21949,1.551-2.44,3.096-4.608-.0285-9.217-.168m2.914-18.998a.64516.64516,0,0,0-.663.646v13.438a.68259.68259,0,0,0,.663.677q1.68594.03752,3.369.06a.65079.65079,0,0,0,.664-.651V55.5199a.6731.6731,0,0,0-.664-.669q-1.68448-.024-3.369-.062" style="fill: #fff"/>
        <path d="M2.431,67.5389q-1.215-1.818-2.431-3.643v-17.2q1.18653-1.2495,2.372-2.509,4.34253.801,8.7,1.502,1.19247,1.7445,2.386,3.483v4.679q-2.121-.32851-4.242-.68v-2.778a.92059.92059,0,0,0-.744-.872q-1.5-.25051-2.997-.515a.60863.60863,0,0,0-.743.617v13.161a.928.928,0,0,0,.743.879q1.497.264,2.997.516a.61573.61573,0,0,0,.744-.624v-3.228q2.118.351,4.242.68v5.279q-1.2735,1.3635-2.545,2.719-4.248-.6855-8.482-1.466" style="fill: #fff"/>
        <path d="M124.263,66.2147a.56161.56161,0,0,1-.652-.505v-13.85a.7796.7796,0,0,1,.659-.749c.258-.034.515-.069.773-.104v-3.917q-3.357.456-6.718.853v3.917c.292-.035.582-.07.87305-.104a.57317.57317,0,0,1,.66.58v10.004q-3.09145-6.9135-6.188-13.876-3.408.36-6.819.661v3.917q.402-.03451.807-.072a.61475.61475,0,0,1,.468.151.59685.59685,0,0,1,.194.45q-.009,6.891-.018,13.784a.74036.74036,0,0,1-.662.72c-.269.025-.54.048-.808.072q.00752,2.1585.014,4.32,3.49356-.309,6.981-.68-.00448-2.0055-.01-4.013c-.361.039-.722.076-1.083.114a.59788.59788,0,0,1-.469-.147.58721.58721,0,0,1-.194-.449q.006-5.628.013-11.257,3.16947,7.041,6.332,14.031.25955.573.519,1.145,2.33844-.279,4.676-.589c.508-.066,1.015-.135,1.524-.204v-4.32c-.29.039-.581.079-.87195.117" style="fill: #fff"/>
        <path d="M149.11783,62.10461a2.328,2.328,0,1,1-2.335,2.328,2.32333,2.32333,0,0,1,2.335-2.328m0,5.109a2.78051,2.78051,0,1,0-2.788-2.781,2.76448,2.76448,0,0,0,2.788,2.781m.481-2.64a.79379.79379,0,0,0,.834-.856c0-.658-.509-.828-1.075-.828h-1.315v3.128h.452v-1.444h.579l.801,1.444h.516Zm-.325-1.231c.375,0,.707.03.707.425,0,.425-.58.353-1.005.353h-.481v-.778Z" style="fill: #fff"/>
      </g>
    </g>
  </g>
</svg>
